<svg width="54" height="54" viewBox="0 0 54 54" fill="none" xmlns="http://www.w3.org/2000/svg">
<path d="M26.9293 0C12.4809 0 0.765625 12.2466 0.765625 27.3377C0.765625 39.4178 8.26431 49.6531 18.6597 53.2711C18.8055 53.3034 18.9543 53.3193 19.1035 53.3186C20.073 53.3186 20.4468 52.5926 20.4468 51.9619C20.4468 51.3073 20.4234 49.5935 20.4117 47.3084C19.5463 47.5152 18.6609 47.6229 17.772 47.6297C12.7378 47.6297 11.5932 43.6427 11.5932 43.6427C10.4018 40.4888 8.68479 39.6438 8.68479 39.6438C6.40715 38.0133 8.67311 37.9658 8.84832 37.9658H8.86C11.488 38.2038 12.8663 40.7983 12.8663 40.7983C14.1745 43.131 15.9265 43.7855 17.4916 43.7855C18.5265 43.7645 19.5455 43.5212 20.4818 43.0715C20.7154 41.3101 21.3928 40.108 22.1404 39.4178C16.3353 38.7274 10.2266 36.3829 10.2266 25.9095C10.2266 22.9223 11.2428 20.4824 12.913 18.5782C12.6443 17.8879 11.745 15.103 13.17 11.3421C13.3611 11.2955 13.5576 11.2755 13.754 11.2826C14.7001 11.2826 16.8375 11.6516 20.365 14.1508C24.651 12.929 29.184 12.929 33.4702 14.1508C36.9976 11.6516 39.135 11.2826 40.0811 11.2826C40.2775 11.2755 40.474 11.2955 40.6652 11.3421C42.0901 15.103 41.1907 17.8879 40.9221 18.5782C42.5924 20.4944 43.6086 22.9341 43.6086 25.9095C43.6086 36.4066 37.4882 38.7156 31.6598 39.3939C32.5941 40.239 33.4351 41.9051 33.4351 44.452C33.4351 48.1059 33.4001 51.0574 33.4001 51.95C33.4001 52.5926 33.7622 53.3186 34.7316 53.3186C34.8886 53.3194 35.0451 53.3034 35.1989 53.2711C45.6059 49.6531 53.0929 39.4058 53.0929 27.3377C53.0929 12.2466 41.3777 0 26.9293 0Z" fill="#25282B"/>
</svg>
